PathFileType	4	(X/Y/Z)	W12_1_OpenSim.trc																																																																																																																						
DataRate	CameraRate	NumFrames	NumMarkers	Units	OrigDataRate	OrigDataStartFrame	OrigNumFrames																																																																																																																		
100	100	4	40	mm	100	2626	3000																																																																																																																		
Frame#	Time	R.ASIS			R.PSIS			S2			L.PSIS			L.ASIS			R.TH1			R.TH2			R.TH3			R.MKnee			R.Knee			R.SH1			R.SH2			R.SH3			R.SH4			R.Ankle			R.MAnkle			R.Heel			R.MT5			R.MT1			L.TH1			L.TH2			L.TH3			L.TH4			L.MKnee			L.Knee			L.SH1			L.SH2			L.SH3			L.Ankle			L.MAnkle			L.Heel			L.MT5			L.MT1			R.Acr			L.Acr			C7			T10			Clav			Sternum			R.Back		
		X1	Y1	Z1	X2	Y2	Z2	X3	Y3	Z3	X4	Y4	Z4	X5	Y5	Z5	X6	Y6	Z6	X7	Y7	Z7	X8	Y8	Z8	X9	Y9	Z9	X10	Y10	Z10	X11	Y11	Z11	X12	Y12	Z12	X13	Y13	Z13	X14	Y14	Z14	X15	Y15	Z15	X16	Y16	Z16	X17	Y17	Z17	X18	Y18	Z18	X19	Y19	Z19	X20	Y20	Z20	X21	Y21	Z21	X22	Y22	Z22	X23	Y23	Z23	X24	Y24	Z24	X25	Y25	Z25	X26	Y26	Z26	X27	Y27	Z27	X28	Y28	Z28	X29	Y29	Z29	X30	Y30	Z30	X31	Y31	Z31	X32	Y32	Z32	X33	Y33	Z33	X34	Y34	Z34	X35	Y35	Z35	X36	Y36	Z36	X37	Y37	Z37	X38	Y38	Z38	X39	Y39	Z39	X40	Y40	Z40
2626	26.25	1061.6306	1059.8712	-398.8454	868.6163	1054.6887	-482.0872	857.4629	1047.8674	-526.5716	859.2751	1051.865	-576.7871	1031.9865	1040.8151	-692.7202	1113.2401	742.8797	-383.7741	1035.4793	717.8384	-372.6543	1065.7571	614.1169	-393.1089	1108.9116	509.8028	-525.6629	1124.9946	510.2429	-410.3201	1140.2316	343.0351	-413.8575	1141.398	232.5228	-435.4002	1060.3348	339.224	-393.3571	1067.0344	226.6755	-406.6481	1079.1707	74.7881	-423.7572	1113.3507	94.0159	-517.9868	1019.198	34.4403	-480.7165	1195.2285	38.9895	-398.4021	1243.4659	39.6545	-487.3112	1056.5826	741.6078	-702.3845	1060.9474	632.6937	-699.9044	973.9274	734.2993	-715.5583	981.6195	625.0851	-704.5444	1043.7734	473.5712	-589.8464	1031.0968	489.385	-703.8406	935.5826	394.849	-721.7026	888.6639	463.5972	-717.9038	800.2158	398.6342	-713.9042	666.6382	243.4925	-722.4839	689.3423	225.2585	-625.553	605.8872	290.2669	-668.7811	664.0424	123.8759	-733.2836	693.3223	100.4234	-630.6049	986.6702	1447.2026	-376.7612	970.6412	1442.5662	-701.8911	919.557	1484.6285	-541.6443	895.9039	1157.6998	-539.6713	1060.6775	1395.0904	-544.3218	1093.3065	1252.179	-539.2386	847.9189	1383.3477	-458.3253
2627	26.26	1060.6427	1061.3663	-397.8001	867.4619	1056.5737	-481.309	856.3516	1049.8321	-525.7944	858.164	1053.8962	-576.0093	1030.6622	1043.4447	-691.809	1109.4764	742.8037	-383.4071	1031.2998	718.833	-372.1173	1060.2285	614.6425	-392.5623	1101.5227	509.6055	-525.3618	1117.9006	509.9755	-410.0309	1131.4171	342.5485	-413.8261	1131.316	232.0495	-435.4786	1051.6102	339.5987	-392.76	1057.033	227.0216	-406.2521	1067.0571	74.9169	-423.7704	1101.145	94.1051	-518.1646	1007.103	34.4973	-480.7043	1183.0908	38.9889	-398.4298	1231.2959	39.6394	-487.3142	1061.0592	745.7589	-701.5343	1068.4885	637.0521	-699.2328	978.6219	736.1477	-714.6323	989.4412	627.1958	-703.8	1055.0948	477.4033	-588.6719	1042.8284	493.061	-703.2308	947.6127	398.8203	-720.9349	900.8942	467.8219	-717.2138	812.144	403.217	-713.542	677.9448	249.3132	-721.9917	700.7206	230.4727	-625.1608	616.8362	295.1932	-668.0732	676.1967	129.8364	-733.6281	705.7258	105.2914	-631.5686	987.0226	1449.4906	-376.0917	969.2797	1444.2999	-700.9949	919.1094	1486.6951	-540.533	894.9308	1159.7831	-538.2182	1060.0365	1396.8793	-543.7334	1092.3545	1253.8989	-538.588	847.7189	1385.7159	-456.6159
2628	26.27	1059.5267	1062.7587	-396.7864	866.1835	1058.4421	-480.6248	855.1416	1051.8198	-525.1166	856.9836	1055.9982	-575.33	1029.3897	1046.1997	-690.8563	1105.4777	742.7047	-383.0366	1026.86	719.8274	-371.5512	1054.4529	615.1735	-391.9327	1093.8429	509.3701	-524.9891	1110.4659	509.6902	-409.6539	1122.3456	342.0922	-413.687	1121.1204	231.602	-435.4452	1042.6242	339.933	-392.1455	1046.8563	227.3604	-405.8425	1054.9783	75.0237	-423.7628	1088.9959	94.1982	-518.3006	995.0432	34.5611	-480.6861	1170.9746	38.9618	-398.4495	1219.1436	39.6179	-487.3107	1065.1178	750.2343	-700.9177	1075.5594	641.8006	-698.8333	982.9257	738.3568	-713.7998	996.8531	629.7283	-703.2345	1066.1975	481.5955	-587.73	1054.0437	497.1383	-702.7886	959.3834	402.8507	-720.3128	912.5588	471.8312	-716.3616	823.8429	407.1346	-712.9751	689.7516	253.5706	-721.328	713.0386	234.1844	-624.6957	628.0081	297.7957	-666.965	690.0006	134.3556	-734.103	720.266	109.0341	-632.6953	987.2332	1451.8264	-375.4737	967.836	1446.0071	-700.2184	918.5904	1488.7356	-539.5199	893.8784	1161.8337	-536.7993	1059.3119	1398.6639	-543.2321	1091.3368	1255.6409	-537.9909	847.4457	1388.0676	-455.0143
2629	26.28	1058.2676	1064.0411	-395.7864	864.7794	1060.2411	-480.0359	853.829	1053.7629	-524.5426	855.7302	1058.0912	-574.7533	1028.1818	1048.9934	-689.8535	1101.2106	742.5746	-382.6274	1022.1411	720.799	-370.9816	1048.3946	615.6984	-391.2597	1085.9818	509.1287	-524.5609	1102.6934	509.3879	-409.1937	1112.9998	341.6565	-413.4326	1110.7832	231.1731	-435.2958	1033.3313	340.2328	-391.5922	1036.4584	227.6869	-405.4807	1042.9397	75.1096	-423.7551	1076.9189	94.281	-518.3998	983.0208	34.627	-480.667	1158.8776	38.9126	-398.4641	1207.0133	39.5935	-487.3023	1068.8027	754.9529	-700.54	1082.1631	646.8483	-698.7184	986.8845	740.8757	-713.0994	1003.8396	632.6282	-702.9009	1077.0426	486.0808	-587.0814	1064.7091	501.536	-702.5585	970.8862	406.8151	-719.8824	923.6545	475.4803	-715.4232	835.3163	410.2314	-712.2439	702.0979	256.1981	-720.5598	726.2513	236.3012	-624.1947	639.5704	298.2069	-665.5467	705.1638	137.35	-734.6816	736.5708	111.4606	-633.9909	987.3238	1454.1786	-374.9084	966.3397	1447.6614	-699.5482	918.0146	1490.7286	-538.6041	892.7589	1163.8296	-535.4154	1058.5179	1400.4251	-542.8094	1090.27	1257.3845	-537.4333	847.1116	1390.3766	-453.516
